# xmcd CD database file
#
# Track frame offsets:
#	150
#	14733
#	29946
#	45965
#	64011
#	83950
#	105329
#	119005
#	140488
#	154018
#	165598
#	184438
#	200536
#	222893
#
# Disc length: 3183 seconds
#
# Revision: 0
# Processed by: cddbd v1.5.2PL0 Copyright (c) Steve Scherf et al.
# Submitted via: CDex 1.51
#
DISCID=ca0c6d0e
DTITLE=Nashville - Dance till daylight
DYEAR=2006
DGENRE=Country
TTITLE0=Just to tell
TTITLE1=Louisiana saturday night
TTITLE2=Fire andrain
TTITLE3=Rest your little head
TTITLE4=Fly like an eagle
TTITLE5=On the run
TTITLE6=Billy Jean
TTITLE7=Rememberin'
TTITLE8=Lickin' our sores
TTITLE9=Workin' man's blues
TTITLE10=Honky tonkin' again
TTITLE11=The small things in life
TTITLE12=Light up a candle
TTITLE13=End of the line
EXTD=YEAR: 2006
EXTT0=
EXTT1=
EXTT2=
EXTT3=
EXTT4=
EXTT5=
EXTT6=
EXTT7=
EXTT8=
EXTT9=
EXTT10=
EXTT11=
EXTT12=
EXTT13=
PLAYORDER=
